<svg xmlns="http://www.w3.org/2000/svg"
 xmlns:xlink="http://www.w3.org/1999/xlink"
 width="54px" height="42px"  viewBox="0 0 54 42">
<path fill-rule="evenodd"  fill="#a3bbc8"
 d="M2.1566544,30.674217 C2.397438,30.985672 2.7645645,31.057564 2.7787552,31.061165 C2.7787552,31.061165 50.819565,40.85932 50.819565,40.85932 C50.8246,40.859978 51.32299,40.976974 51.727997,40.647217 C52.131516,40.318443 52.03779,39.842934 52.03779,39.842934 C52.03779,39.842934 52.03779,39.842934 52.03779,39.842934 C52.03779,39.842934 45.786568,2.763794 45.786568,2.763794 C45.786568,2.7628136 45.73427,2.3582191 45.338074,2.1189957 C44.943253,1.8800964 44.372993,2.0676842 44.372993,2.0676842 C44.372993,2.0676842 9.179092,16.117996 9.179092,16.117996 C9.047256,16.182709 8.843208,16.244804 8.672348,16.569649 C8.501144,16.8945 2.1779404,29.646065 2.0898209,29.826462 C1.9999847,30.007843 1.9177017,30.362762 2.1566544,30.674217 ZM47.74282,37.109802 C47.74282,37.109802 27.693344,25.964851 27.693344,25.964851 C27.693344,25.964851 38.031937,23.80626 38.031937,23.80626 C38.031937,23.80626 47.74282,37.109802 47.74282,37.109802 ZM10.047356,18.227242 C10.047356,18.227242 22.568565,25.209915 22.568565,25.209915 C22.568565,25.209915 4.7355804,28.924461 4.7355804,28.924461 C4.7355804,28.924461 10.047356,18.227242 10.047356,18.227242 ZM11.709381,17.055298 C11.709381,17.055298 43.24037,4.4684486 43.24037,4.4684486 C43.24037,4.4684486 37.681633,22.055527 37.681633,22.055527 C37.681633,22.055527 25.310455,24.639297 25.310455,24.639297 C25.310455,24.639297 11.709381,17.055298 11.709381,17.055298 ZM49.36342,36.050278 C49.36342,36.050278 39.584442,22.65326 39.584442,22.65326 C39.584442,22.65326 44.487206,7.13295 44.487206,7.13295 C44.487206,7.13295 49.36342,36.050278 49.36342,36.050278 ZM45.476547,37.947754 C45.476547,37.947754 7.4264297,30.187263 7.4264297,30.187263 C7.4264297,30.187263 24.949394,26.537102 24.949394,26.537102 C24.949394,26.537102 45.476547,37.947754 45.476547,37.947754 Z"/>
</svg>